<svg width="21" height="14" viewBox="0 0 21 14" fill="none" xmlns="http://www.w3.org/2000/svg">
<path d="M19.1983 0H0.935009C0.418618 0 0 0.417176 0 0.931788V12.1986C0 12.7133 0.418618 13.1304 0.935009 13.1304H19.1983C19.7147 13.1304 20.1333 12.7133 20.1333 12.1986V0.931788C20.1333 0.417176 19.7147 0 19.1983 0Z" fill="#EC1C24"/>
<path d="M14.1848 5.64598C13.5198 6.12759 12.8552 6.6096 12.191 7.092C12.0273 7.21062 11.7851 7.31027 11.7315 7.46981C11.6779 7.62936 11.8118 7.85178 11.8737 8.04395C12.1082 8.77052 12.3469 9.4965 12.5832 10.2231C12.604 10.2865 12.6195 10.3524 12.6504 10.4651L11.1798 9.4016C10.8667 9.17503 10.5495 8.95379 10.2436 8.71833C10.1245 8.62758 10.0466 8.63766 9.9317 8.72248C9.21333 9.25095 8.48901 9.7723 7.76648 10.2948C7.69982 10.3435 7.63078 10.388 7.51889 10.4639C7.57841 10.2859 7.61531 10.1525 7.65816 10.022C7.91468 9.23553 8.16643 8.44787 8.43188 7.66495C8.48782 7.50006 8.44914 7.41821 8.31284 7.32154C7.59091 6.80908 6.8767 6.28655 6.16012 5.76638C6.10418 5.72605 6.05002 5.68216 5.94824 5.60387C6.06728 5.59853 6.13989 5.5926 6.21071 5.5926C7.10346 5.5926 7.99622 5.58785 8.88897 5.5926C9.05204 5.5926 9.12049 5.53981 9.1687 5.38619C9.43533 4.54456 9.71387 3.70648 9.98884 2.86722C10.0089 2.78942 10.0501 2.71863 10.1079 2.6626C10.1329 2.73199 10.1585 2.8002 10.1817 2.87019C10.456 3.70945 10.7352 4.54753 11.0006 5.38975C11.0506 5.54633 11.1232 5.59378 11.2833 5.5926C12.1695 5.58548 13.0557 5.58904 13.9419 5.58904H14.1675L14.1848 5.64598Z" fill="#FFF100"/>
</svg>
